<svg version="1.1" xmlns="http://www.w3.org/2000/svg" viewBox="0 0 822.5744983989921 362.89119912483653" width="1645.1489967979842" height="725.7823982496731">
  <!-- svg-source:excalidraw -->
  
  <defs>
    <style class="style-fonts">
      @font-face {
        font-family: "Virgil";
        src: url("https://excalidraw.com/Virgil.woff2");
      }
      @font-face {
        font-family: "Cascadia";
        src: url("https://excalidraw.com/Cascadia.woff2");
      }
      @font-face {
        font-family: "Assistant";
        src: url("https://excalidraw.com/Assistant-Regular.woff2");
      }
    </style>
    
  </defs>
  <g stroke-linecap="round" transform="translate(10 93.51542382496166) rotate(0 70.11953901458742 67.7280240650804)"><path d="M78.25 0.07 C87.66 0.05, 97.53 5.23, 106.2 10.58 C114.88 15.93, 124.72 24.13, 130.32 32.17 C135.92 40.22, 138.81 49.17, 139.8 58.86 C140.8 68.55, 139.47 80.94, 136.28 90.29 C133.08 99.64, 127.63 107.93, 120.63 114.96 C113.63 122, 103.9 129.2, 94.28 132.49 C84.65 135.78, 73.14 135.88, 62.9 134.69 C52.66 133.49, 41.62 130.38, 32.86 125.32 C24.1 120.25, 15.88 112.45, 10.34 104.3 C4.81 96.16, 0.59 86.39, -0.34 76.46 C-1.28 66.53, 1.32 54.11, 4.73 44.73 C8.14 35.35, 12.98 27.15, 20.12 20.18 C27.25 13.21, 36.53 6.02, 47.55 2.91 C58.56 -0.2, 78.58 1.18, 86.19 1.49 C93.81 1.8, 93.53 3.72, 93.25 4.78 M53.39 1.95 C62.67 -1.49, 74.61 -0.8, 84.61 1.31 C94.61 3.43, 105.23 8.73, 113.38 14.63 C121.54 20.53, 129.07 27.89, 133.54 36.7 C138.01 45.5, 140.17 57.41, 140.2 67.46 C140.22 77.52, 137.81 88.37, 133.69 97.03 C129.57 105.69, 123.09 113.44, 115.5 119.4 C107.91 125.35, 98.05 130.15, 88.16 132.76 C78.26 135.36, 66.18 137.06, 56.14 135.01 C46.09 132.96, 36.04 126.56, 27.9 120.45 C19.76 114.34, 12.19 106.65, 7.32 98.35 C2.46 90.05, -1.35 80.26, -1.29 70.62 C-1.23 60.98, 3.13 49.52, 7.67 40.51 C12.21 31.49, 18.17 22.78, 25.94 16.52 C33.71 10.25, 49.52 5.2, 54.28 2.92 C59.04 0.64, 54.45 1.77, 54.5 2.82" stroke="#1e1e1e" stroke-width="2" fill="none"></path></g><g transform="translate(52.98756494951829 148.852502797258) rotate(0 27.049972534179688 12.5)"><text x="27.049972534179688" y="0" font-family="Virgil, Segoe UI Emoji" font-size="20px" fill="#1e1e1e" text-anchor="middle" style="white-space: pre;" direction="ltr" dominant-baseline="text-before-edge">Client</text></g><g stroke-linecap="round" transform="translate(617.0539183630813 42.69233787038263) rotate(0 72.21397962401466 66.20443500736437)"><path d="M71.8 0.18 C81.96 -1.01, 95.2 1.84, 104.58 6.04 C113.97 10.25, 121.76 17.95, 128.11 25.41 C134.46 32.87, 140.41 41.41, 142.7 50.82 C144.98 60.23, 144.15 72.39, 141.84 81.85 C139.52 91.3, 135.15 100.18, 128.8 107.54 C122.46 114.9, 113.35 121.79, 103.76 126 C94.17 130.22, 81.83 132.79, 71.29 132.83 C60.74 132.87, 49.73 130.58, 40.5 126.22 C31.26 121.86, 22.43 114.19, 15.88 106.66 C9.33 99.13, 3.41 90.26, 1.19 81.04 C-1.03 71.82, 0.25 60.84, 2.56 51.34 C4.86 41.84, 8.67 31.54, 15.01 24.03 C21.36 16.51, 30.72 10.37, 40.62 6.25 C50.52 2.12, 68.31 0.02, 74.4 -0.72 C80.48 -1.46, 77.13 0.67, 77.13 1.79 M55.48 0.41 C64.99 -2.23, 78.16 0.31, 88.38 2.73 C98.59 5.14, 108.78 9.12, 116.78 14.91 C124.78 20.71, 132 29.05, 136.39 37.49 C140.78 45.93, 143.19 56.08, 143.13 65.54 C143.07 75.01, 140.2 85.65, 136.03 94.27 C131.86 102.88, 126.42 110.92, 118.12 117.23 C109.82 123.55, 96.77 130.05, 86.21 132.17 C75.65 134.3, 64.66 132.37, 54.74 130 C44.83 127.62, 34.5 123.66, 26.73 117.93 C18.96 112.2, 12.61 104.4, 8.11 95.64 C3.62 86.88, 0.06 75.11, -0.25 65.36 C-0.56 55.61, 1.41 45.65, 6.24 37.14 C11.08 28.64, 20.31 20.25, 28.77 14.33 C37.24 8.4, 52.11 3.37, 57.01 1.6 C61.92 -0.18, 58.1 2.74, 58.2 3.67" stroke="#1e1e1e" stroke-width="2" fill="none"></path></g><g transform="translate(643.8849417506365 96.5831679394156) rotate(0 45.31996154785156 12.5)"><text x="45.31996154785156" y="0" font-family="Virgil, Segoe UI Emoji" font-size="20px" fill="#1e1e1e" text-anchor="middle" style="white-space: pre;" direction="ltr" dominant-baseline="text-before-edge">Service A</text></g><g stroke-linecap="round" transform="translate(617.2149082576723 197.7242607925014) rotate(0 74.8841613059385 67.34541906361233)"><path d="M70.9 0.08 C80.99 -1.48, 93.56 2.16, 103.32 5.75 C113.09 9.34, 122.32 14.4, 129.51 21.63 C136.69 28.85, 143.28 39.65, 146.41 49.1 C149.55 58.55, 149.92 68.79, 148.34 78.32 C146.77 87.85, 143.05 98.32, 136.95 106.3 C130.86 114.28, 121.41 121.33, 111.76 126.21 C102.11 131.08, 89.79 135.08, 79.05 135.55 C68.31 136.02, 57.25 132.96, 47.3 129.03 C37.35 125.11, 26.65 119.12, 19.35 112 C12.05 104.88, 6.42 95.51, 3.51 86.32 C0.6 77.13, 0.11 66.49, 1.88 56.83 C3.66 47.18, 7.98 36.57, 14.16 28.39 C20.33 20.22, 28.2 12.4, 38.92 7.79 C49.64 3.17, 70.57 1.77, 78.48 0.71 C86.38 -0.35, 86.41 0.35, 86.34 1.4 M60.09 1.42 C70.38 -1.42, 83.44 -1.2, 94.06 0.95 C104.69 3.1, 115.69 8.1, 123.85 14.31 C132.01 20.51, 138.85 29.14, 143.02 38.17 C147.19 47.2, 149.06 58.35, 148.85 68.49 C148.64 78.63, 146.61 90.17, 141.73 99 C136.86 107.83, 128.02 115.73, 119.62 121.49 C111.21 127.25, 101.61 131.7, 91.31 133.55 C81.01 135.4, 68.4 134.87, 57.8 132.61 C47.21 130.35, 36.17 125.92, 27.73 119.99 C19.3 114.07, 11.77 106.19, 7.19 97.08 C2.6 87.96, 0.06 75.42, 0.21 65.31 C0.37 55.2, 3.51 44.99, 8.12 36.42 C12.73 27.85, 19.48 19.48, 27.89 13.89 C36.3 8.3, 53.43 4.9, 58.6 2.89 C63.76 0.87, 58.51 1.06, 58.87 1.82" stroke="#1e1e1e" stroke-width="2" fill="none"></path></g><g transform="translate(646.1180106683901 252.4492773543837) rotate(0 46.02996063232422 12.5)"><text x="46.02996063232422" y="0" font-family="Virgil, Segoe UI Emoji" font-size="20px" fill="#1e1e1e" text-anchor="middle" style="white-space: pre;" direction="ltr" dominant-baseline="text-before-edge">Service B</text></g><g stroke-linecap="round" transform="translate(318.7424623874358 94.2458678970184) rotate(0 89.01937042097245 71.9841361947357)"><path d="M112.5 18 C128.11 29.98, 142.96 43.14, 155.54 54 M112.5 18 C127.21 29.01, 142.26 41.99, 155.54 54 M155.54 54 C178.25 73.81, 177.29 72.54, 155.54 90 M155.54 54 C176.25 73.34, 179.45 72.09, 155.54 90 M155.54 90 C138.31 102.9, 125.54 116.51, 112.5 125.97 M155.54 90 C142.69 101.93, 128.45 112.78, 112.5 125.97 M112.5 125.97 C89.29 143.85, 90.63 144.75, 67.5 125.97 M112.5 125.97 C89.35 145.21, 88.57 145.46, 67.5 125.97 M67.5 125.97 C52.51 113.83, 40.11 103.78, 22.5 90 M67.5 125.97 C54.93 115.75, 42.64 106.98, 22.5 90 M22.5 90 C1.88 70.37, 1.46 70.06, 22.5 54 M22.5 90 C1.25 73.49, -2.13 73.13, 22.5 54 M22.5 54 C32.93 44.86, 42.13 37.39, 67.5 18 M22.5 54 C35.18 44.89, 45.9 34.92, 67.5 18 M67.5 18 C91.68 -0.37, 89.43 -1.29, 112.5 18 M67.5 18 C90.8 1.74, 92.1 -0.37, 112.5 18" stroke="#1e1e1e" stroke-width="2" fill="none"></path></g><g transform="translate(380.99217597926963 153.73793599438625) rotate(0 26.759971618652344 12.5)"><text x="26.759971618652344" y="0" font-family="Virgil, Segoe UI Emoji" font-size="20px" fill="#1e1e1e" text-anchor="middle" style="white-space: pre;" direction="ltr" dominant-baseline="text-before-edge">Proxy</text></g><g stroke-linecap="round" transform="translate(294.41896600205564 10) rotate(0 259.0777661984682 171.44559956241827)"><path d="M32 0 C206.83 0.81, 382.05 0.77, 486.16 0 M32 0 C202.41 1.34, 373.08 1.55, 486.16 0 M486.16 0 C507.49 -0.95, 519.19 10.75, 518.16 32 M486.16 0 C508.66 -0.83, 520.41 8.73, 518.16 32 M518.16 32 C517.67 140.99, 518.41 249.69, 518.16 310.89 M518.16 32 C518.62 136.59, 519.25 239.71, 518.16 310.89 M518.16 310.89 C518.63 332.15, 506.32 341.14, 486.16 342.89 M518.16 310.89 C517.45 331.76, 509.43 341.52, 486.16 342.89 M486.16 342.89 C365.85 342.82, 243.97 342.67, 32 342.89 M486.16 342.89 C378.21 344.07, 270.87 343.99, 32 342.89 M32 342.89 C10.71 341.6, 1.55 332.37, 0 310.89 M32 342.89 C11.94 344.94, 0.58 334.42, 0 310.89 M0 310.89 C1.28 233.82, 1.68 154.41, 0 32 M0 310.89 C-2.06 226.09, -1.46 141.97, 0 32 M0 32 C1.46 12.41, 9.07 0.66, 32 0 M0 32 C-0.69 11.43, 9.75 -0.17, 32 0" stroke="#1e1e1e" stroke-width="2" fill="none"></path></g><g stroke-linecap="round"><g transform="translate(157.98991997900248 166.44145389831704) rotate(0 80.70512048170201 -0.16024546198059397)"><path d="M-0.11 -0.24 C26.54 -0.37, 133.89 -0.29, 160.68 -0.39 M-1.63 -1.41 C25.34 -1.37, 135.55 0.83, 163.01 1.12" stroke="#1e1e1e" stroke-width="2" fill="none"></path></g><g transform="translate(157.98991997900248 166.44145389831704) rotate(0 80.70512048170201 -0.16024546198059397)"><path d="M139.39 9.3 C147.59 5.12, 156.51 2.12, 163.01 1.12 M139.39 9.3 C146.26 7.5, 151.4 5.02, 163.01 1.12" stroke="#1e1e1e" stroke-width="2" fill="none"></path></g><g transform="translate(157.98991997900248 166.44145389831704) rotate(0 80.70512048170201 -0.16024546198059397)"><path d="M139.66 -7.8 C147.81 -5.73, 156.63 -2.5, 163.01 1.12 M139.66 -7.8 C146.57 -5.15, 151.63 -3.17, 163.01 1.12" stroke="#1e1e1e" stroke-width="2" fill="none"></path></g></g><mask></mask><g stroke-linecap="round"><g transform="translate(495.112150928295 168.28054687118754) rotate(0 60.30583936971527 -27.268048492854234)"><path d="M0.59 -0.05 C20.97 -9.25, 101.14 -46.1, 121.09 -55.26 M-0.56 -1.12 C19.8 -10.18, 100.4 -45.29, 120.39 -54.1" stroke="#1e1e1e" stroke-width="2" fill="none"></path></g><g transform="translate(495.112150928295 168.28054687118754) rotate(0 60.30583936971527 -27.268048492854234)"><path d="M102.3 -36.85 C105.87 -39.62, 108.38 -44.41, 120.39 -54.1 M102.3 -36.85 C107.49 -41.06, 110.77 -45.09, 120.39 -54.1" stroke="#1e1e1e" stroke-width="2" fill="none"></path></g><g transform="translate(495.112150928295 168.28054687118754) rotate(0 60.30583936971527 -27.268048492854234)"><path d="M95.44 -52.51 C100.38 -52.16, 104.28 -53.8, 120.39 -54.1 M95.44 -52.51 C102.46 -52.72, 107.51 -52.71, 120.39 -54.1" stroke="#1e1e1e" stroke-width="2" fill="none"></path></g></g><mask></mask><g stroke-linecap="round"><g transform="translate(494.73306925798124 173.88275126357235) rotate(0 61.4026739294585 46.93109454626659)"><path d="M0.79 0.24 C21.39 16.11, 103.27 78.73, 123.65 94.44 M-0.25 -0.68 C20.25 14.9, 102.69 77.09, 123.15 92.61" stroke="#1e1e1e" stroke-width="2" fill="none"></path></g><g transform="translate(494.73306925798124 173.88275126357235) rotate(0 61.4026739294585 46.93109454626659)"><path d="M99.26 85.26 C106.97 88.78, 114.89 90.12, 123.15 92.61 M99.26 85.26 C107.6 88.58, 115.48 90.38, 123.15 92.61" stroke="#1e1e1e" stroke-width="2" fill="none"></path></g><g transform="translate(494.73306925798124 173.88275126357235) rotate(0 61.4026739294585 46.93109454626659)"><path d="M109.57 71.62 C114.01 79.41, 118.76 84.96, 123.15 92.61 M109.57 71.62 C114.36 79.62, 118.62 86.21, 123.15 92.61" stroke="#1e1e1e" stroke-width="2" fill="none"></path></g></g><mask></mask></svg>